HIERARCHY
ROOT Hips
{
	OFFSET 0.00000 0.00000 0.00000
	CHANNELS 6 Xposition Yposition Zposition Zrotation Yrotation Xrotation 
	JOINT RightUpLegDummy
	{
		OFFSET 0 0 0
		CHANNELS 3 Zrotation Yrotation Xrotation
		JOINT RightUpLeg
		{
			OFFSET -3.52197 -3.41223 0.04002
			CHANNELS 3 Zrotation Yrotation Xrotation
			JOINT RightLeg
			{
				OFFSET 0.00006 -17.42390 1.60435
				CHANNELS 3 Zrotation Yrotation Xrotation
				JOINT RightFoot
				{
					OFFSET 0.06153 -16.50078 -1.63901
					CHANNELS 3 Zrotation Yrotation Xrotation
					JOINT RightToes
					{
						OFFSET 0.00298 -1.73825 3.34613
						CHANNELS 3 Zrotation Yrotation Xrotation
						End Site
						{
							OFFSET 0.00480 -0.05416 3.85043
						}
					}
				}
			}
		}
	}
	JOINT SpineDummy
	{
		OFFSET 0 0 0
		CHANNELS 3 Zrotation Yrotation Xrotation
		JOINT Spine
		{
			OFFSET 0.00000 4.68130 0.00000
			CHANNELS 3 Zrotation Yrotation Xrotation
			JOINT Spine1
			{
				OFFSET -0.00000 10.10138 0.05002
				CHANNELS 3 Zrotation Yrotation Xrotation
				JOINT HEadDummy
				{
					OFFSET 0 0 0
					CHANNELS 3 Zrotation Yrotation Xrotation
					JOINT Head
					{
						OFFSET -0.00000 3.43865 0.00438
						CHANNELS 3 Zrotation Yrotation Xrotation
						End Site
						{
							OFFSET -0.11417 5.02924 0.98962
						}
					}
				}
				JOINT LeftShoulder1Dummy
				{
					OFFSET 0 0 0
					CHANNELS 3 Zrotation Yrotation Xrotation
					JOINT LeftShoulder1
					{
						OFFSET 3.53937 -0.14262 -0.08662
						CHANNELS 3 Zrotation Yrotation Xrotation
						JOINT LeftArm
						{
							OFFSET 4.04833 -0.00133 0.12681
							CHANNELS 3 Zrotation Yrotation Xrotation
							JOINT LeftForeArm
							{
								OFFSET 10.33880 -0.01036 -0.55515
								CHANNELS 3 Zrotation Yrotation Xrotation
								JOINT LeftHand
								{
									OFFSET 8.69677 0.07543 0.40060
									CHANNELS 3 Zrotation Yrotation Xrotation
									End Site
									{
										OFFSET 5.28377 -0.21905 0.59205
									}
								}
							}
						}
					}
				}
				JOINT RightShoulderDummy
				{
					OFFSET 0 0 0
					CHANNELS 3 Zrotation Yrotation Xrotation
					JOINT RightShoulder
					{
						OFFSET -3.53937 -0.14262 -0.08660
						CHANNELS 3 Zrotation Yrotation Xrotation
						JOINT RightArm
						{
							OFFSET -4.04833 -0.00133 0.12683
							CHANNELS 3 Zrotation Yrotation Xrotation
							JOINT RightForeArm
							{
								OFFSET -10.37987 -0.01039 -0.55511
								CHANNELS 3 Zrotation Yrotation Xrotation
								JOINT RightHand
								{
									OFFSET -8.67398 0.07538 0.40058
									CHANNELS 3 Zrotation Yrotation Xrotation
									End Site
									{
										OFFSET -5.24810 -0.21916 0.59204
									}
								}
							}
						}
					}
				}
			}
		}
	}
	JOINT LeftUpLegDummy
	{
		OFFSET 0 0 0
		CHANNELS 3 Zrotation Yrotation Xrotation
		JOINT LeftUpLeg
		{
			OFFSET 3.52197 -3.41223 0.04002
			CHANNELS 3 Zrotation Yrotation Xrotation
			JOINT LeftLeg
			{
				OFFSET -0.00012 -17.42399 1.60337
				CHANNELS 3 Zrotation Yrotation Xrotation
				JOINT LeftFoot
				{
					OFFSET -0.09972 -16.50070 -1.63802
					CHANNELS 3 Zrotation Yrotation Xrotation
					JOINT LeftToes
					{
						OFFSET -0.01575 -1.73823 3.34611
						CHANNELS 3 Zrotation Yrotation Xrotation
						End Site
						{
							OFFSET 0.03150 -0.01868 3.85031
						}
					}
				}
			}
		}
	}
}
MOTION
Frames: 11
Frame Time: 0.033333
-3.8395 40.0506 76.1569 -178.5500 3.9598 177.1270 0.0000 0.0000 0.0000 2.4937 -1.4167 2.4117 -1.6906 -8.2459 4.0221 -1.7487 0.0971 -3.4801 0.0000 -0.0000 0.0000 0.0000 0.0000 0.0000 1.2926 -0.0306 3.1185 2.6879 -0.5731 -0.0921 -0.0000 0.0000 -0.0000 1.7160 -0.8394 2.1818 -0.0000 0.0000 -0.0000 -34.2442 -2.5336 2.4292 -44.2257 -14.0166 -20.6913 -9.0489 5.2378 44.7124 13.5866 -3.1949 -0.9794 -0.0000 0.0000 -0.0000 34.5625 5.1049 3.4981 40.6887 4.3526 -17.4257 10.3581 0.1150 24.6461 -10.8581 1.2238 -0.6077 0.0000 0.0000 0.0000 2.4742 2.5132 2.8552 1.6985 7.9339 5.4206 0.9517 -0.0302 -5.1567 0.0000 0.0000 -0.0000
-3.8428 40.0506 76.1569 -178.5430 3.9212 177.1510 0.0000 0.0000 0.0000 2.4977 -1.4148 2.3865 -1.6951 -8.2783 4.0253 -1.7609 0.0979 -3.4801 0.0000 -0.0000 0.0000 0.0000 0.0000 0.0000 1.3341 -0.0244 3.1046 2.6353 -0.5585 -0.0778 -0.0000 0.0000 -0.0000 1.7162 -0.9783 2.1874 -0.0000 0.0000 -0.0000 -34.2151 -2.5336 2.4292 -44.2765 -14.0419 -20.6992 -9.0301 5.2341 44.8589 13.4544 -3.4066 -0.9926 -0.0000 0.0000 -0.0000 34.6095 5.1050 3.4981 40.6404 4.2821 -17.3861 10.3709 0.2193 24.6704 -10.0190 1.7330 -0.5993 0.0000 0.0000 0.0000 2.4773 2.5021 2.8109 1.7002 7.9060 5.4487 0.9498 -0.0301 -5.1726 0.0000 0.0000 -0.0000
-3.8459 40.0506 76.1569 -178.5210 3.8712 177.1890 0.0000 0.0000 0.0000 2.5349 -1.3743 2.3419 -1.7368 -8.3589 4.0441 -1.7423 0.0967 -3.4851 0.0000 -0.0000 0.0000 0.0000 0.0000 0.0000 1.3795 -0.0085 3.1453 2.5978 -0.5346 -0.1297 -0.0000 0.0000 -0.0000 1.7678 -0.7979 2.1330 -0.0000 0.0000 -0.0000 -34.2025 -2.5336 2.4292 -44.3685 -14.0298 -20.7106 -9.0039 5.2305 45.0035 13.5148 -3.5268 -1.0103 -0.0000 0.0000 -0.0000 34.6317 5.1050 3.4981 40.6227 4.1791 -17.3643 10.3612 0.3398 24.8810 -8.8042 2.3925 -0.5702 0.0000 0.0000 0.0000 2.4947 2.5060 2.7413 1.6998 7.8530 5.5001 0.9368 -0.0293 -5.2017 0.0000 0.0000 -0.0000
-3.8476 40.0506 76.1596 -178.5020 3.8322 177.2380 0.0000 0.0000 0.0000 2.5743 -1.3218 2.2697 -1.7900 -8.4459 4.0797 -1.7075 0.0945 -3.4951 0.0000 -0.0000 0.0000 0.0000 0.0000 0.0000 1.4175 0.0043 3.2360 2.5617 -0.5116 -0.2537 -0.0000 0.0000 -0.0000 1.8591 -0.2797 2.0396 -0.0000 0.0000 -0.0000 -34.1806 -2.5289 2.4260 -44.4835 -13.9854 -20.6822 -9.0051 5.2320 44.9507 13.8378 -3.2541 -1.0048 -0.0000 0.0000 -0.0000 34.6168 5.1049 3.4981 40.6778 4.1949 -17.4210 10.3272 0.2690 25.1442 -8.3252 2.5710 -0.5491 0.0000 0.0000 0.0000 2.5215 2.5240 2.6598 1.6784 7.8000 5.5382 0.9140 -0.0278 -5.2146 0.0000 0.0000 -0.0000
-3.8502 40.0506 76.1651 -178.5020 3.7906 177.3080 0.0000 0.0000 0.0000 2.5760 -1.3046 2.1747 -1.8080 -8.5047 4.1070 -1.6792 0.0927 -3.4969 0.0000 -0.0000 0.0000 0.0000 0.0000 0.0000 1.4833 -0.0034 3.2929 2.4588 -0.4993 -0.3480 -0.0000 0.0000 -0.0000 1.9585 -0.0753 1.9853 -0.0000 0.0000 -0.0000 -34.1026 -2.5084 2.4130 -44.6029 -13.9842 -20.6012 -9.0412 5.2363 44.7725 14.1092 -2.8698 -0.9814 -0.0000 0.0000 -0.0000 34.6561 5.1105 3.5038 40.7152 4.3461 -17.5002 10.3086 0.0365 25.2294 -8.6026 2.3647 -0.5545 0.0000 0.0000 0.0000 2.5262 2.5312 2.5595 1.6542 7.7587 5.5565 0.9192 -0.0282 -5.2059 0.0000 0.0000 -0.0000
-3.8497 40.0503 76.1670 -178.5070 3.7432 177.3830 0.0000 0.0000 0.0000 2.5637 -1.3046 2.0880 -1.8084 -8.5525 4.1180 -1.6501 0.0908 -3.4994 0.0000 -0.0000 0.0000 0.0000 0.0000 0.0000 1.5660 -0.0276 3.2838 2.3280 -0.5019 -0.3590 -0.0000 0.0000 -0.0000 2.0578 -0.4841 1.9841 -0.0000 0.0000 -0.0000 -33.9967 -2.4747 2.3931 -44.7041 -14.0463 -20.5291 -9.0721 5.2380 44.6957 14.1103 -2.8384 -0.9778 -0.0000 0.0000 -0.0000 34.7696 5.1320 3.5225 40.6762 4.4854 -17.5046 10.3280 -0.1285 25.1287 -8.9373 2.1875 -0.5647 0.0000 0.0000 0.0000 2.5162 2.5247 2.4557 1.6444 7.7235 5.5778 0.9624 -0.0309 -5.2030 0.0000 0.0000 -0.0000
-3.8480 40.0500 76.1632 -178.5100 3.7018 177.4380 0.0000 0.0000 0.0000 2.5762 -1.2771 2.0265 -1.8420 -8.6171 4.1409 -1.6182 0.0888 -3.5196 0.0000 -0.0000 0.0000 0.0000 0.0000 0.0000 1.6098 -0.0459 3.2570 2.2589 -0.5100 -0.3321 -0.0000 0.0000 -0.0000 2.1406 -0.9479 1.9821 -0.0000 0.0000 -0.0000 -33.8991 -2.4519 2.3781 -44.8055 -14.1271 -20.5094 -9.0639 5.2353 44.8028 13.9679 -3.1246 -1.0000 -0.0000 0.0000 -0.0000 34.8854 5.1541 3.5417 40.6125 4.5140 -17.4301 10.3674 -0.1083 24.9688 -9.0151 2.1479 -0.5670 0.0000 0.0000 0.0000 2.5117 2.5186 2.3828 1.6427 7.6885 5.6018 1.0054 -0.0337 -5.2157 0.0000 0.0000 -0.0000
-3.8469 40.0498 76.1576 -178.5210 3.6687 177.4720 0.0000 0.0000 0.0000 2.5931 -1.2369 1.9809 -1.8996 -8.6811 4.1853 -1.5911 0.0872 -3.5497 0.0000 -0.0000 0.0000 0.0000 0.0000 0.0000 1.6084 -0.0458 3.2373 2.2403 -0.5075 -0.2942 -0.0000 0.0000 -0.0000 2.1710 -0.8664 1.9669 -0.0000 0.0000 -0.0000 -33.8109 -2.4579 2.3751 -44.9183 -14.1948 -20.4600 -9.0652 5.2327 44.8974 13.8957 -3.2770 -1.0118 -0.0000 0.0000 -0.0000 34.9816 5.1683 3.5560 40.5645 4.4918 -17.3562 10.3993 0.0067 24.8130 -9.0052 2.2122 -0.5745 0.0000 0.0000 0.0000 2.5011 2.5085 2.3510 1.6410 7.6650 5.5995 1.0094 -0.0340 -5.2202 0.0000 0.0000 -0.0000
-3.8479 40.0496 76.1513 -178.5420 3.6401 177.4980 0.0000 0.0000 0.0000 2.5807 -1.2269 1.9512 -1.9273 -8.7110 4.2101 -1.5625 0.0854 -3.5673 0.0000 -0.0000 0.0000 0.0000 0.0000 0.0000 1.6204 -0.0315 3.1971 2.2101 -0.4895 -0.2179 -0.0000 0.0000 -0.0000 2.1328 -0.4416 1.9929 -0.0000 0.0000 -0.0000 -33.7882 -2.4873 2.3855 -44.9567 -14.2401 -20.2818 -9.1583 5.2363 44.7272 13.8982 -3.1115 -0.9934 -0.0000 0.0000 -0.0000 35.0822 5.1814 3.5703 40.5050 4.4799 -17.3171 10.4152 0.1333 24.7165 -8.9021 2.5085 -0.5844 0.0000 0.0000 0.0000 2.4693 2.4799 2.3398 1.6513 7.6692 5.5723 0.9791 -0.0320 -5.2085 0.0000 0.0000 -0.0000
-3.8485 40.0494 76.1392 -178.5530 3.6138 177.5210 0.0000 0.0000 0.0000 2.5594 -1.2408 1.9580 -1.9188 -8.7210 4.1869 -1.5335 0.0835 -3.5733 0.0000 -0.0000 0.0000 0.0000 0.0000 0.0000 1.6631 -0.0078 3.1454 2.1962 -0.4663 -0.1261 -0.0000 0.0000 -0.0000 2.0674 -0.2926 2.0839 -0.0000 0.0000 -0.0000 -33.9192 -2.5321 2.4113 -44.8315 -14.2600 -20.0707 -9.3053 5.2448 44.3457 13.8635 -2.8841 -0.9653 -0.0000 0.0000 -0.0000 35.1217 5.1872 3.5761 40.4657 4.4278 -17.2790 10.4176 0.3004 24.7521 -8.5960 2.9553 -0.5932 0.0000 0.0000 0.0000 2.4375 2.4438 2.3405 1.6775 7.6833 5.5497 0.9516 -0.0302 -5.2029 0.0000 0.0000 -0.0000
-3.8457 40.0492 76.1200 -178.5570 3.5688 177.5240 0.0000 0.0000 0.0000 2.5558 -1.2511 2.0056 -1.9167 -8.7561 4.1565 -1.5302 0.0834 -3.5939 0.0000 -0.0000 0.0000 0.0000 0.0000 0.0000 1.6705 0.0189 3.1414 2.2642 -0.4526 -0.0864 -0.0000 0.0000 -0.0000 2.0470 -0.5961 2.1694 -0.0000 0.0000 -0.0000 -34.1363 -2.5893 2.4475 -44.6363 -14.3088 -20.0572 -9.3421 5.2495 44.1518 13.7948 -2.8393 -0.9553 -0.0000 0.0000 -0.0000 34.9971 5.1634 3.5554 40.5556 4.3170 -17.2500 10.4015 0.4963 24.8693 -8.3324 3.1012 -0.5835 0.0000 0.0000 0.0000 2.4276 2.4270 2.3745 1.6868 7.6548 5.5248 0.9576 -0.0306 -5.2060 0.0000 0.0000 -0.0000
